<?xml version="1.0" encoding="utf-8"?>
<svg version="1.1" id="Layer_1" xmlns="http://www.w3.org/2000/svg" xmlns:xlink="http://www.w3.org/1999/xlink" x="0px" y="0px"
	 viewBox="0 0 35 35" enable-background="new 0 0 35 35" xml:space="preserve">
<rect fill="#34ba9f" width="35" height="35"/>
<path fill="#FFFFFF" d="M9.5,14.6l7,7c0.5,0.5,1.4,0.5,2,0l7-7c0.5-0.5,0.5-1.4,0-2c-0.5-0.5-1.4-0.5-2,0c0,0-4.5,4.5-5.6,5.6
	c-0.3,0.3-0.6,0.3-0.9,0c-1.1-1.1-5.6-5.6-5.6-5.6c-0.3-0.3-0.6-0.4-1-0.4s-0.7,0.1-1,0.4C8.9,13.2,8.9,14.1,9.5,14.6L9.5,14.6z"/>
</svg>
